HIERARCHY
ROOT hip
{
	OFFSET 0.000000 0.000000 0.000000 
	CHANNELS 6 Xposition Yposition Zposition Xrotation Zrotation Yrotation
	JOINT abdomen
	{
		OFFSET 0.000000 3.402643 0.000000 
		CHANNELS 3 Xrotation Zrotation Yrotation
		JOINT chest
		{
			OFFSET 0.000000 8.438565 -0.680529 
			CHANNELS 3 Xrotation Zrotation Yrotation
			JOINT neck
			{
				OFFSET 0.000000 10.207942 -0.272212 
				CHANNELS 3 Xrotation Zrotation Yrotation
				JOINT head
				{
					OFFSET 0.000000 3.130431 0.000000 
					CHANNELS 3 Xrotation Zrotation Yrotation
					End Site
					{
						OFFSET 0.000000 3.130435 0.000000 
					}
				}
			}
			JOINT lCollar
			{
				OFFSET 3.470700 6.669187 -0.816635 
				CHANNELS 3 Yrotation Zrotation Xrotation
				JOINT lShldr
				{
					OFFSET 3.198488 0.000000 0.000000 
					CHANNELS 3 Zrotation Yrotation Xrotation
					JOINT lForeArm
					{
						OFFSET 10.139888 0.000000 0.000000 
						CHANNELS 3 Yrotation Zrotation Xrotation
						JOINT lHand
						{
							OFFSET 8.370511 0.000000 0.000000 
							CHANNELS 3 Zrotation Yrotation Xrotation
							End Site
							{
								OFFSET 4.083176 0.000000 0.000000 
							}
						}
					}
				}
			}
			JOINT rCollar
			{
				OFFSET -3.470700 6.669187 -0.816635 
				CHANNELS 3 Yrotation Zrotation Xrotation
				JOINT rShldr
				{
					OFFSET -3.198488 0.000000 0.000000 
					CHANNELS 3 Zrotation Yrotation Xrotation
					JOINT rForeArm
					{
						OFFSET -10.139888 0.000000 0.000000 
						CHANNELS 3 Yrotation Zrotation Xrotation
						JOINT rHand
						{
							OFFSET -8.370511 0.000000 0.000000 
							CHANNELS 3 Zrotation Yrotation Xrotation
							End Site
							{
								OFFSET -4.083176 0.000000 0.000000 
							}
						}
					}
				}
			}
		}
	}
	JOINT lThigh
	{
		OFFSET 5.308129 -1.633274 1.361059 
		CHANNELS 3 Xrotation Zrotation Yrotation
		JOINT lShin
		{
			OFFSET -2.041588 -20.007561 0.000000 
			CHANNELS 3 Xrotation Zrotation Yrotation
			JOINT lFoot
			{
				OFFSET 0.000000 -19.190928 -1.224953 
				CHANNELS 3 Xrotation Yrotation Zrotation
				End Site
				{
					OFFSET 0.000000 -2.449906 4.627600 
				}
			}
		}
	}
	JOINT rThigh
	{
		OFFSET -5.308129 -1.633274 1.361059 
		CHANNELS 3 Xrotation Zrotation Yrotation
		JOINT rShin
		{
			OFFSET 2.041588 -20.007561 0.000000 
			CHANNELS 3 Xrotation Zrotation Yrotation
			JOINT rFoot
			{
				OFFSET 0.000000 -19.190928 -1.224953 
				CHANNELS 3 Xrotation Yrotation Zrotation
				End Site
				{
					OFFSET 0.000000 -2.449906 4.627600 
				}
			}
		}
	}
}
MOTION
Frames: 11
Frame Time: 0.016667
-2.472852 78.013504 5.007967 -9.746471 0.906869 -3.105852 33.536396 -1.106829 1.336389 -3.651838 1.484375 -0.019285 -22.033848 -1.826991 0.523483 5.767930 -3.981174 2.300229 2.997935 30.000000 2.162983 4.231425 -22.054893 -29.344109 -32.584106 5.000000 -45.000000 -42.730419 11.167925 -8.133742 -1.055712 -30.000000 1.902416 -25.705572 23.293848 -45.000000 29.776453 -5.000000 -44.126999 47.768505 -25.174398 -5.273904 21.107590 5.585849 12.915601 8.447063 -7.260176 -1.328581 -8.963130 7.539059 -4.606312 22.276621 -4.402470 -0.032321 3.250357 4.214502 0.342529 -10.329122 -1.333591 5.949058 
-2.474238 78.006058 5.232443 -10.024717 0.936455 -2.705355 33.422504 -0.964611 1.452702 -3.789063 1.425781 -0.009523 -21.779156 -1.810606 0.501261 5.911572 -4.069022 2.290480 1.889655 30.000000 2.067636 5.653035 -21.503389 -29.079418 -32.801781 5.000000 -45.000000 -41.892151 10.604776 -8.011489 -0.937591 -30.000000 1.867244 -26.157049 23.516832 -45.000000 30.166327 -5.000000 -43.557999 47.534061 -25.724981 -5.131332 21.090471 5.674406 12.938837 9.405229 -6.949609 -1.397390 -9.161886 7.112451 -4.797630 22.593456 -4.237361 -0.295561 3.844754 4.145465 0.385991 -10.523700 -1.503647 5.651353 
-2.478593 78.013176 5.466815 -10.292270 0.995355 -2.207207 33.230648 -0.832996 1.552913 -3.973664 1.386719 0.049053 -21.417276 -1.783103 0.487228 6.179991 -4.108300 2.202811 0.851110 30.000000 1.967866 6.997605 -21.415020 -29.062988 -32.950989 5.000000 -45.000000 -41.129616 9.664974 -7.248059 -0.757239 -30.000000 1.823143 -26.713284 23.681210 -45.000000 30.513935 -5.000000 -42.947021 47.170914 -26.139017 -4.874465 21.148178 5.801312 12.801513 10.156119 -6.744592 -1.456203 -9.267089 6.747430 -4.762117 22.872677 -4.080913 -0.651908 4.497416 4.096961 0.404225 -10.730695 -1.690099 5.572154 
-2.484928 78.029999 5.707784 -10.558469 1.073768 -1.660414 33.009159 -0.723014 1.632224 -4.186467 1.347653 0.156445 -20.966923 -1.758525 0.453893 6.530552 -4.118399 2.075485 -0.139014 30.000000 1.870474 8.301818 -21.614321 -29.230488 -33.079266 5.000000 -45.000000 -40.481853 8.432313 -6.080969 -0.540888 -30.000000 1.768624 -27.355003 23.803745 -45.000000 30.833765 -5.000000 -42.299236 46.724270 -26.471085 -4.532566 21.254301 5.957084 12.551488 10.797563 -6.629149 -1.500421 -9.325105 6.474219 -4.565682 23.176996 -3.915116 -1.093281 5.133730 4.039914 0.449529 -10.965701 -1.892748 5.668416 
-2.492675 78.052811 5.952765 -10.841945 1.122839 -1.103686 32.798645 -0.577374 1.726780 -4.370506 1.318352 0.254079 -20.546705 -1.759987 0.443942 6.917362 -4.089295 2.006604 -0.859195 30.000000 1.749735 9.536057 -22.221825 -29.752491 -33.240845 5.000000 -45.000000 -39.801773 7.606742 -4.745140 -0.355147 -29.963161 1.710932 -28.072039 23.973639 -45.000000 31.157036 -5.000000 -41.687923 46.282635 -26.875212 -4.098372 21.376320 6.152601 12.261673 11.383800 -6.541640 -1.530260 -9.273006 6.196457 -4.365170 23.444809 -3.730354 -1.559853 5.888309 3.983546 0.473520 -11.377131 -2.053394 5.686939 
-2.506081 78.099518 6.213793 -11.240632 1.083937 -0.537198 32.668957 -0.350092 1.835794 -4.486610 1.308582 0.361487 -20.215824 -1.904818 0.466155 7.413993 -3.981388 2.221615 -0.564512 29.602573 1.669272 10.515888 -24.439655 -31.683203 -33.700943 5.000000 -45.000000 -38.779354 8.402855 -2.705611 -0.323005 -28.881083 1.635775 -29.064795 24.373646 -45.000000 31.546379 -5.000000 -41.161060 45.828671 -27.590548 -3.306475 21.664730 6.484378 11.847698 11.882043 -6.551655 -1.617651 -9.120942 6.113858 -4.087521 23.647141 -3.456741 -2.213393 6.990772 3.943880 0.571700 -12.480746 -1.942592 5.417407 
-2.519490 78.146225 6.474823 -11.640090 1.044922 0.029470 32.539536 -0.118491 1.935654 -4.603003 1.289047 0.459132 -19.875317 -2.059305 0.489525 7.910353 -3.883185 2.446379 -0.272198 28.422941 1.589502 11.591829 -26.631256 -33.699810 -34.149002 5.000000 -45.000000 -37.754902 9.134332 -0.611909 -0.288623 -27.808712 1.566385 -30.070665 24.759155 -45.000000 31.935110 -5.000000 -40.635807 45.363823 -28.292185 -2.514492 21.923187 6.806849 11.422236 12.371297 -6.571816 -1.675918 -8.899450 6.107786 -3.786305 23.806999 -3.174160 -2.845126 8.113653 3.923948 0.652129 -13.583751 -1.842564 5.153683 
-2.531395 78.261650 6.735947 -11.941256 1.122984 0.605735 32.336845 0.003365 1.871566 -4.739521 1.376937 0.420078 -19.698708 -2.002835 0.471112 8.005139 -4.098487 2.222293 -0.390366 27.009285 1.507110 12.642099 -28.122614 -34.770519 -34.294228 5.000000 -44.925179 -37.252808 9.819270 1.085005 -0.143968 -26.434076 1.477391 -31.499249 25.373833 -45.000000 32.356674 -5.000000 -40.173130 45.010006 -29.358885 -1.671231 22.050062 7.061175 10.411056 12.747040 -6.803828 -1.782806 -8.452850 6.809868 -3.455923 23.448669 -3.104878 -3.809113 10.000739 3.971916 0.802478 -13.942234 -1.658990 5.173701 
-2.542926 78.394234 6.997099 -12.211159 1.230211 1.172234 32.123280 0.105860 1.777226 -4.876445 1.494127 0.341969 -19.570183 -1.889896 0.433961 7.999390 -4.401910 1.889698 -0.602645 25.546867 1.414417 13.690115 -29.426016 -35.626930 -34.365845 5.000000 -44.942913 -36.881626 10.480868 2.676260 0.040778 -24.991133 1.385690 -33.049633 26.007534 -45.000000 32.782356 -5.000000 -39.732250 44.661182 -30.000000 -0.816289 22.152464 7.333921 9.245799 13.087415 -7.080976 -1.911089 -7.930879 7.566779 -3.185154 22.967989 -3.085995 -4.871683 12.071161 4.051252 0.989914 -14.119639 -1.440233 5.245782 
-2.545881 78.545456 7.253631 -12.528954 1.034732 1.641063 32.025898 0.591106 1.739632 -4.982402 1.640606 0.351730 -19.581026 -1.984988 0.458541 7.977877 -4.704736 1.793101 -0.643519 23.918753 1.301165 14.774837 -30.503574 -36.270519 -34.482513 5.000000 -44.956635 -36.619747 11.015909 3.918938 0.190875 -23.606638 1.297924 -34.684570 26.673325 -45.000000 33.354263 -5.000000 -39.201824 44.187771 -30.000000 0.153043 22.230614 7.763015 8.811941 13.634281 -7.137062 -1.971730 -7.280093 7.875475 -3.135959 22.287127 -2.909769 -5.831443 14.429397 4.125766 1.211111 -13.673939 -0.932902 6.339500 
-2.535975 78.724640 7.503228 -12.926407 0.380636 1.962977 32.105057 1.665031 1.804829 -5.046206 1.816364 0.508235 -19.830242 -2.384660 0.558468 7.906057 -4.986999 2.068024 -0.433299 22.046665 1.189343 15.865662 -31.260263 -36.554344 -34.692524 5.000000 -44.937607 -36.531681 11.398712 4.616996 0.296982 -22.319601 1.219874 -36.432423 27.373541 -45.000000 34.142815 -5.000000 -38.542400 43.531284 -30.000000 1.255677 22.346920 8.466110 9.472927 14.468184 -6.816822 -1.982084 -6.483319 7.318041 -3.486896 21.313799 -2.461189 -6.665659 17.294432 4.216356 1.457343 -12.450065 0.024006 8.931870 
